<?xml version="1.0" encoding="utf-8"?>
<!-- Generator: Adobe Illustrator 20.0.0, SVG Export Plug-In . SVG Version: 6.00 Build 0)  -->
<svg
  version="1.1"
  id="logo"
  xmlns="http://www.w3.org/2000/svg"
  xmlns:xlink="http://www.w3.org/1999/xlink"
  x="0px"
  y="0px"
  viewBox="0 0 560.5 87.9"
  style="color:inherit;enable-background:new 0 0 560.5 87.9;"
  xml:space="preserve">
<style type="text/css">
  .st0 { fill: #0088f5; }
  <!-- .st0 { fill: currentColor; } -->
</style>
  <path id="svg_1" d="m205.6,77.2l3.5,-9.1c1.8,1.4 4,2.5 6.7,3.4s5,1.4 7.1,1.4c3.7,0 6.7,-1.1 9,-3.2s3.4,-4.8 3.4,-8.1c0,-2.5 -0.6,-4.7 -1.9,-6.8c-1.3,-2.1 -4.4,-4.4 -9.5,-6.9l-5.6,-2.7c-4.8,-2.3 -8.1,-5.1 -10,-8.2c-1.9,-3.2 -2.8,-7 -2.8,-11.5c0,-5.4 1.8,-9.9 5.5,-13.5s8.4,-5.4 14.2,-5.4c7.7,0 13.1,1.3 16.1,3.9l-2.8,8.6c-1.3,-1 -3.2,-1.9 -5.8,-2.8s-5,-1.3 -7.3,-1.3c-3.2,0 -5.8,1 -7.7,2.9c-1.9,1.9 -2.8,4.4 -2.8,7.4c0,1.9 0.3,3.5 1,5.1c0.7,1.6 1.6,2.8 2.8,3.8s3.6,2.5 7.3,4.3l5.7,2.8c4.8,2.4 8.1,5.2 10.1,8.4c1.9,3.3 2.9,7.4 2.9,12.4c0,5.5 -2.1,10.1 -6.3,13.9s-9.9,5.7 -16.9,5.7c-6.2,0.1 -11.5,-1.5 -15.9,-4.5z" class="st0"/>
  <path id="svg_2" d="m253.417571,8.569304l0,73l9,0l0,-35c9.8371,0 19.6742,0 29,0l0,35l9,0l0,-73l-9,0l0,32l-29,0l0,-32l-9,0z" class="st0"/>
  <path id="svg_3" d="m312.809338,8.734579l9.5,0l0,49.8c0,4.4 1.4,8.1 4.1,11s6.3,4.3 10.7,4.3c4.7,0 8.4,-1.4 11.1,-4.2c2.7,-2.8 4.1,-6.6 4.1,-11.3l0,-49.6l9.5,0l0,50.6c0,7.4 -2.2,13.1 -6.6,17.2s-10.4,6.2 -18,6.2c-7.8,0 -13.9,-2 -18.1,-6.1c-4.2,-4 -6.4,-9.8 -6.4,-17.4l0.1,-50.5l0,0z" class="st0"/>
  <path id="svg_4" d="m428.7,80.5l-8.3,-46.7l-15.3,47.7l-2.4,0l-15.7,-47.7l-8.1,46.7l-9.1,0l13.2,-72.7l4.3,0l16.7,53l15.4,-53.1l4.3,0l14.2,72.8c-0.1,0 -9.2,0 -9.2,0z" class="st0"/>
  <path id="svg_5" d="m442.1,43.5c0,-10.5 2.5,-19.3 7.6,-26.4s11.9,-10.6 20.6,-10.6c9.7,0 17.1,3.3 22.3,9.8c5.2,6.5 7.8,15.6 7.8,27.3c0,12 -2.6,21.3 -7.8,28.1c-5.2,6.8 -12.6,10.2 -22.3,10.2c-8.8,0 -15.7,-3.6 -20.7,-10.7c-5,-7.3 -7.5,-16.5 -7.5,-27.7zm10,0c0,8.3 1.6,15.3 4.8,20.9c3.2,5.6 7.6,8.4 13.4,8.4c6.5,0 11.5,-2.6 14.9,-7.7s5.1,-12.3 5.1,-21.6c0,-18.7 -6.7,-28.1 -20.1,-28.1c-5.9,0 -10.4,2.5 -13.5,7.5c-3,5.1 -4.6,11.9 -4.6,20.6z" class="st0"/>
  <path id="svg_6" d="m556.6,81.5l-36.1,-53.2l0,52.2l-9.1,0l0,-72.7l3.8,0l35.2,50.3l0,-50.3l9.1,0l0,73.8c-0.1,-0.1 -2.9,-0.1 -2.9,-0.1z" class="st0"/>
  <path id="svg_7" d="m48.6,81.4l-4.3,4.3c-0.5,0.5 -1.1,0.8 -1.8,0.8s-1.4,-0.3 -2,-0.8l-39.6,-39.7c-0.6,-0.6 -0.9,-1.3 -0.9,-2s0.3,-1.4 0.9,-2l39.6,-39.6c0.5,-0.6 1.2,-0.9 2,-0.9s1.4,0.3 1.8,0.9l4.3,4.3c0.6,0.5 0.9,1.2 0.9,2s-0.3,1.4 -0.9,1.8l-33.4,33.5l33.4,33.4c0.6,0.6 0.9,1.3 0.9,2c0,0.7 -0.3,1.4 -0.9,2z" class="st0"/>
  <path id="svg_8" d="m113.7,3.7l-35.7,82.7c-0.2,0.5 -0.7,1 -1.5,1.3s-1.5,0.3 -2.2,0.1l-5.8,-1c-0.9,-0.2 -1.5,-0.6 -1.9,-1c-0.3,-0.5 -0.5,-1 -0.3,-1.6l35.7,-82.5c0.3,-0.6 0.9,-1 1.5,-1.3c0.7,-0.2 1.4,-0.3 2.2,-0.2l6,1.1c0.8,0.2 1.4,0.5 1.9,1c0.4,0.4 0.5,0.9 0.1,1.4z" class="st0"/>
  <path id="svg_9" d="m173.4,46l-39.6,39.6c-0.6,0.5 -1.3,0.8 -2,0.8s-1.4,-0.3 -2,-0.8l-4.3,-4.3c-0.5,-0.6 -0.8,-1.3 -0.8,-2s0.3,-1.4 0.8,-2l33.4,-33.3l-33.4,-33.5c-0.5,-0.5 -0.8,-1.1 -0.8,-1.8s0.3,-1.4 0.8,-2l4.3,-4.3c0.6,-0.6 1.3,-0.9 2,-0.9s1.4,0.3 2,0.9l39.6,39.6c0.5,0.5 0.8,1.2 0.8,2s-0.3,1.5 -0.8,2z" class="st0"/>
</svg>
